<svg width="130" height="130" viewBox="0 0 130 130" fill="none" xmlns="http://www.w3.org/2000/svg">
<path d="M101.567 79.9501C103.462 75.3459 104.492 70.4167 104.492 65.0001C104.492 61.1001 103.896 57.3626 102.867 53.8959C99.3458 54.7084 95.6625 55.1417 91.8167 55.1417C83.9407 55.1502 76.1781 53.265 69.1833 49.645C62.1885 46.0251 56.1665 40.7765 51.625 34.3417C46.7714 46.0999 37.6051 55.5569 26.0042 60.7751C25.7875 62.1292 25.7875 63.5917 25.7875 65.0001C25.7875 70.1714 26.8061 75.2921 28.7851 80.0698C30.764 84.8475 33.6647 89.1886 37.3214 92.8453C44.7064 100.23 54.7227 104.379 65.1667 104.379C70.8542 104.379 76.325 103.133 81.2542 100.913C84.3417 106.817 85.75 109.742 85.6417 109.742C76.7583 112.721 69.8792 114.183 65.1667 114.183C52.0583 114.183 39.5458 109.038 30.3375 99.7751C24.7315 94.1955 20.5673 87.3357 18.2042 79.7876H11V55.1417H16.9042C18.693 46.4345 22.8056 38.3739 28.8056 31.8153C34.8056 25.2567 42.4693 20.4448 50.9833 17.89C59.4973 15.3352 68.5442 15.133 77.1638 17.3047C85.7835 19.4764 93.6545 23.9411 99.9417 30.2251C106.766 37.0261 111.421 45.6966 113.321 55.1417H119.333V79.7876H119.008L99.725 97.5001L71.0167 94.2501V85.2042H97.1792L101.567 79.9501ZM50.3792 63.7542C52.0042 63.7542 53.575 64.4042 54.7125 65.5959C55.8557 66.7484 56.4971 68.3059 56.4971 69.9292C56.4971 71.5525 55.8557 73.1101 54.7125 74.2626C53.575 75.4001 52.0042 76.0501 50.3792 76.0501C46.9667 76.0501 44.2042 73.3417 44.2042 69.9292C44.2042 66.5167 46.9667 63.7542 50.3792 63.7542ZM79.9 63.7542C83.3125 63.7542 86.0208 66.5167 86.0208 69.9292C86.0208 73.3417 83.3125 76.0501 79.9 76.0501C76.4875 76.0501 73.725 73.3417 73.725 69.9292C73.725 68.2915 74.3756 66.7209 75.5336 65.5628C76.6917 64.4048 78.2623 63.7542 79.9 63.7542Z" fill="black"/>
</svg>
