<svg width="327" height="99" viewBox="0 0 327 99" fill="none" xmlns="http://www.w3.org/2000/svg">
<g clip-path="url(#clip0_266_648)">
<rect width="327" height="99" fill="white"/>
<path d="M133.191 63.2897H124.341V18.1316H133.191V63.2897ZM162.397 63.2897H151.408L133.339 40.7107L150.671 18.1316H161.659L144.179 40.7107L162.393 63.2897H162.397Z" fill="black"/>
<path d="M162.468 44.7687C162.468 42.2129 162.883 39.7869 163.721 37.502C164.555 35.2133 165.786 33.2213 167.409 31.5261C169.033 29.8272 171.024 28.4881 173.382 27.5051C175.744 26.5222 178.42 26.0288 181.42 26.0288C184.222 26.0288 186.754 26.4702 189.016 27.3568C191.277 28.2433 193.205 29.4971 194.807 31.1218C196.405 32.7465 197.658 34.7273 198.57 37.0605C199.478 39.3975 199.982 41.994 200.082 44.8466C200.131 45.7813 200.157 46.9238 200.157 48.2777C200.157 49.6317 200.231 51.1191 200.379 52.7439C200.527 54.3686 200.794 56.0786 201.191 57.8739C201.584 59.6693 202.199 61.4795 203.033 63.2971H194.184C193.346 61.4795 192.734 59.584 192.341 57.6143C191.062 59.4838 189.439 60.9602 187.474 62.0433C185.505 63.1264 183.147 63.668 180.393 63.668C177.786 63.668 175.377 63.1784 173.163 62.1917C170.95 61.2087 169.059 59.8659 167.484 58.1707C165.908 56.4718 164.681 54.4799 163.795 52.1949C162.909 49.9062 162.468 47.4357 162.468 44.7798V44.7687ZM181.423 34.2896C179.603 34.2896 178.053 34.5604 176.778 35.102C175.499 35.6436 174.453 36.3929 173.641 37.3536C172.83 38.3143 172.24 39.4308 171.873 40.7106C171.506 41.9903 171.321 43.3665 171.321 44.8428C171.321 46.3192 171.506 47.6954 171.873 48.9751C172.244 50.2549 172.833 51.3714 173.641 52.3321C174.453 53.2928 175.495 54.0421 176.778 54.5837C178.057 55.1253 179.603 55.3961 181.423 55.3961C184.471 55.3961 186.869 54.5466 188.612 52.8514C190.358 51.1525 191.229 48.4855 191.229 44.8466C191.081 41.6008 190.247 39.0302 188.723 37.1347C187.199 35.2429 184.764 34.2933 181.423 34.2933V34.2896Z" fill="black"/>
<path d="M217.781 63.2898H208.932V11.6365H217.781V63.2898Z" fill="black"/>
<path d="M235.48 63.2898H226.631V11.6365H235.48V63.2898Z" fill="black"/>
<path d="M264.019 63.6569C261.61 63.6569 259.522 63.2526 257.75 62.4403C255.982 61.6279 254.454 60.5114 253.179 59.0833V78.0457H244.33V44.8392C244.33 42.2315 244.734 39.7833 245.546 37.4983C246.358 35.2133 247.562 33.2177 249.16 31.5225C250.758 29.8236 252.712 28.4845 255.025 27.5015C257.335 26.5185 260.015 26.0251 263.063 26.0251C266.11 26.0251 268.887 26.5407 271.249 27.5757C273.61 28.6106 275.586 29.9868 277.184 31.7079C278.782 33.4291 279.976 35.421 280.762 37.6838C281.548 39.9465 281.941 42.3094 281.941 44.7687C281.941 47.4246 281.5 49.8988 280.614 52.1838C279.727 54.4725 278.486 56.4644 276.891 58.1596C275.294 59.8585 273.399 61.1976 271.212 62.1806C269.024 63.1673 266.626 63.6569 264.019 63.6569ZM273.091 44.8429C273.091 43.3666 272.906 41.9904 272.539 40.7106C272.172 39.4309 271.579 38.3144 270.771 37.3536C269.959 36.3929 268.913 35.6436 267.638 35.102C266.359 34.5605 264.809 34.2897 262.992 34.2897C259.945 34.2897 257.546 35.1391 255.8 36.8343C254.054 38.5332 253.183 41.2003 253.183 44.8392C253.183 48.4781 254.054 51.1489 255.8 52.8441C257.546 54.543 259.941 55.3887 262.992 55.3887C264.813 55.3887 266.359 55.1179 267.638 54.5763C268.917 54.0348 269.962 53.2855 270.771 52.3247C271.582 51.364 272.172 50.2475 272.539 48.9677C272.91 47.688 273.091 46.3118 273.091 44.8355V44.8429Z" fill="black"/>
<path d="M286.438 44.7687C286.438 42.2129 286.853 39.7869 287.691 37.502C288.525 35.2133 289.756 33.2213 291.38 31.5261C293.004 29.8272 294.994 28.4881 297.352 27.5051C299.714 26.5222 302.391 26.0288 305.39 26.0288C308.193 26.0288 310.725 26.4702 312.986 27.3568C315.248 28.2433 317.175 29.4971 318.777 31.1218C320.375 32.7465 321.628 34.7273 322.54 37.0605C323.448 39.3975 323.953 41.994 324.053 44.8466C324.101 45.7813 324.127 46.9238 324.127 48.2777C324.127 49.6317 324.201 51.1191 324.349 52.7439C324.498 54.3686 324.764 56.0786 325.161 57.8739C325.554 59.6693 326.17 61.4795 327.004 63.2971H318.154C317.316 61.4795 316.705 59.584 316.312 57.6143C315.033 59.4838 313.409 60.9602 311.444 62.0433C309.475 63.1264 307.117 63.668 304.363 63.668C301.757 63.668 299.347 63.1784 297.134 62.1917C294.92 61.2087 293.029 59.8659 291.454 58.1707C289.878 56.4718 288.651 54.4799 287.765 52.1949C286.879 49.9062 286.438 47.4357 286.438 44.7798V44.7687ZM305.394 34.2896C303.573 34.2896 302.024 34.5604 300.748 35.102C299.469 35.6436 298.424 36.3929 297.612 37.3536C296.8 38.3143 296.21 39.4308 295.843 40.7106C295.476 41.9903 295.291 43.3665 295.291 44.8428C295.291 46.3192 295.476 47.6954 295.843 48.9751C296.214 50.2549 296.804 51.3714 297.612 52.3321C298.424 53.2928 299.465 54.0421 300.748 54.5837C302.027 55.1253 303.573 55.3961 305.394 55.3961C308.441 55.3961 310.84 54.5466 312.582 52.8514C314.328 51.1525 315.199 48.4855 315.199 44.8466C315.051 41.6008 314.217 39.0302 312.693 37.1347C311.17 35.2429 308.734 34.2933 305.394 34.2933V34.2896Z" fill="black"/>
<path d="M145.855 98.9075V89.5598H152.676V91.0287H147.59V98.9075H145.855ZM147.456 95.3131V93.8701H152.102V95.3131H147.456Z" fill="black"/>
<path d="M156.117 99.0003C155.583 99.0003 155.116 98.9075 154.715 98.7258C154.315 98.544 154.007 98.2881 153.789 97.9654C153.57 97.6426 153.462 97.2717 153.462 96.8637C153.462 96.4556 153.559 96.1032 153.748 95.7805C153.941 95.4615 154.252 95.2056 154.689 95.0201C155.123 94.8346 155.705 94.7382 156.425 94.7382H158.493V95.8473H156.543C155.983 95.8473 155.601 95.94 155.401 96.1218C155.201 96.3035 155.101 96.5335 155.101 96.808C155.101 97.1011 155.22 97.3385 155.461 97.5165C155.702 97.6946 156.035 97.7836 156.462 97.7836C156.888 97.7836 157.236 97.6909 157.563 97.5017C157.889 97.3162 158.126 97.038 158.278 96.6745L158.545 97.676C158.386 98.0952 158.1 98.4179 157.692 98.6516C157.285 98.8816 156.758 99.0003 156.117 99.0003ZM158.36 98.9075V97.4535L158.278 97.1604V94.638C158.278 94.1484 158.13 93.7663 157.83 93.4955C157.533 93.2247 157.081 93.0875 156.476 93.0875C156.083 93.0875 155.698 93.1506 155.316 93.273C154.934 93.3991 154.604 93.5697 154.33 93.7923L153.677 92.5756C154.07 92.2826 154.526 92.06 155.053 91.9079C155.579 91.7558 156.124 91.6816 156.695 91.6816C157.737 91.6816 158.538 91.9302 159.098 92.4309C159.657 92.928 159.939 93.6958 159.939 94.727V98.9075H158.363H158.36Z" fill="black"/>
<path d="M165.356 99.0002C164.607 99.0002 163.943 98.8407 163.361 98.5254C162.779 98.2101 162.323 97.7761 161.993 97.2308C161.663 96.6819 161.5 96.055 161.5 95.3428C161.5 94.6306 161.663 93.9888 161.993 93.4473C162.323 92.9057 162.779 92.4754 163.361 92.1601C163.943 91.8448 164.61 91.6853 165.356 91.6853C166.041 91.6853 166.649 91.8263 167.183 92.1119C167.717 92.3975 168.118 92.8092 168.384 93.3545L167.117 94.1038C166.901 93.7737 166.642 93.5289 166.334 93.362C166.027 93.1987 165.697 93.1134 165.341 93.1134C164.933 93.1134 164.562 93.2062 164.232 93.3879C163.902 93.5697 163.646 93.8293 163.457 94.1632C163.272 94.497 163.176 94.8902 163.176 95.3465C163.176 95.8027 163.268 96.1959 163.457 96.5335C163.643 96.871 163.902 97.1307 164.232 97.3162C164.562 97.4979 164.929 97.5907 165.341 97.5907C165.697 97.5907 166.027 97.5091 166.334 97.3421C166.642 97.1789 166.901 96.9267 167.117 96.5891L168.384 97.3384C168.118 97.8726 167.717 98.2843 167.183 98.5736C166.649 98.863 166.041 99.0076 165.356 99.0076V99.0002Z" fill="black"/>
<path d="M168.985 93.1096V91.7742H173.738V93.1096H168.985ZM172.615 99.0001C171.832 99.0001 171.228 98.7961 170.798 98.3918C170.368 97.9875 170.157 97.394 170.157 96.6076V90.1978H171.81V96.5556C171.81 96.8932 171.899 97.1566 172.077 97.342C172.255 97.5275 172.503 97.624 172.826 97.624C173.189 97.624 173.493 97.5275 173.734 97.3309L174.216 98.5179C174.012 98.6774 173.768 98.7998 173.482 98.8777C173.197 98.9593 172.907 98.9964 172.615 98.9964V99.0001Z" fill="black"/>
<path d="M178.606 99.0003C178.001 99.0003 177.467 98.8853 177.004 98.659C176.541 98.4328 176.177 98.0841 175.918 97.6167C175.655 97.1493 175.525 96.5595 175.525 95.8473V91.7744H177.208V95.6322C177.208 96.2665 177.356 96.7376 177.649 97.0529C177.942 97.3682 178.354 97.5277 178.876 97.5277C179.269 97.5277 179.61 97.4461 179.903 97.2866C180.196 97.1271 180.422 96.886 180.585 96.5669C180.749 96.2479 180.826 95.851 180.826 95.3799V91.7744H182.495V98.9039H180.908V96.9676L181.19 97.5685C180.949 98.021 180.597 98.3734 180.137 98.622C179.673 98.8705 179.165 98.9966 178.617 98.9966L178.606 99.0003Z" fill="black"/>
<path d="M184.693 98.9075V91.7781H186.28V93.7404L186.094 93.1654C186.298 92.6832 186.632 92.3159 187.095 92.0637C187.559 91.8115 188.122 91.6816 188.79 91.6816V93.2693C188.727 93.2618 188.664 93.2544 188.604 93.2507C188.541 93.247 188.486 93.2433 188.43 93.2433C187.789 93.2433 187.281 93.4251 186.91 93.7923C186.536 94.1558 186.35 94.7122 186.35 95.4615V98.9075H184.697H184.693Z" fill="black"/>
<path d="M191.859 99.0003C191.326 99.0003 190.858 98.9075 190.458 98.7258C190.058 98.544 189.75 98.2881 189.531 97.9654C189.312 97.6426 189.205 97.2717 189.205 96.8637C189.205 96.4556 189.301 96.1032 189.49 95.7805C189.683 95.4615 189.995 95.2056 190.432 95.0201C190.866 94.8346 191.448 94.7382 192.167 94.7382H194.236V95.8473H192.286C191.726 95.8473 191.344 95.94 191.144 96.1218C190.944 96.3035 190.844 96.5335 190.844 96.808C190.844 97.1011 190.962 97.3385 191.203 97.5165C191.444 97.6946 191.778 97.7836 192.204 97.7836C192.631 97.7836 192.979 97.6909 193.305 97.5017C193.632 97.3162 193.869 97.038 194.021 96.6745L194.288 97.676C194.128 98.0952 193.843 98.4179 193.435 98.6516C193.027 98.8816 192.501 99.0003 191.859 99.0003ZM194.102 98.9075V97.4535L194.021 97.1604V94.638C194.021 94.1484 193.873 93.7663 193.572 93.4955C193.276 93.2247 192.823 93.0875 192.219 93.0875C191.826 93.0875 191.44 93.1506 191.059 93.273C190.677 93.3991 190.347 93.5697 190.072 93.7923L189.42 92.5756C189.813 92.2826 190.269 92.06 190.795 91.9079C191.322 91.7558 191.867 91.6816 192.438 91.6816C193.48 91.6816 194.28 91.9302 194.84 92.4309C195.4 92.928 195.682 93.6958 195.682 94.727V98.9075H194.106H194.102Z" fill="black"/>
<path d="M201.094 99.0002C200.346 99.0002 199.682 98.8407 199.1 98.5254C198.518 98.2101 198.062 97.7761 197.732 97.2308C197.402 96.6819 197.239 96.055 197.239 95.3428C197.239 94.6306 197.402 93.9888 197.732 93.4473C198.062 92.9057 198.518 92.4754 199.1 92.1601C199.682 91.8448 200.349 91.6853 201.094 91.6853C201.78 91.6853 202.388 91.8263 202.922 92.1119C203.456 92.3975 203.856 92.8092 204.123 93.3545L202.855 94.1038C202.64 93.7737 202.381 93.5289 202.073 93.362C201.766 93.1987 201.436 93.1134 201.08 93.1134C200.672 93.1134 200.301 93.2062 199.971 93.3879C199.641 93.5697 199.385 93.8293 199.196 94.1632C199.011 94.497 198.915 94.8902 198.915 95.3465C198.915 95.8027 199.007 96.1959 199.196 96.5335C199.382 96.871 199.641 97.1307 199.971 97.3162C200.301 97.4979 200.668 97.5907 201.08 97.5907C201.436 97.5907 201.766 97.5091 202.073 97.3421C202.381 97.1789 202.64 96.9267 202.855 96.5891L204.123 97.3384C203.856 97.8726 203.456 98.2843 202.922 98.5736C202.388 98.863 201.78 99.0076 201.094 99.0076V99.0002Z" fill="black"/>
<path d="M206.355 90.6021C206.044 90.6021 205.788 90.5057 205.588 90.3091C205.388 90.1125 205.287 89.8714 205.287 89.5895C205.287 89.3224 205.388 89.0924 205.588 88.8958C205.788 88.6992 206.044 88.6028 206.355 88.6028C206.667 88.6028 206.922 88.6955 207.123 88.8773C207.323 89.059 207.423 89.2927 207.423 89.5784C207.423 89.864 207.327 90.1051 207.13 90.3054C206.934 90.5057 206.678 90.6059 206.355 90.6059V90.6021ZM205.528 98.9075V91.778H207.182V98.9075H205.528Z" fill="black"/>
<path d="M212.572 99.0001C211.853 99.0001 211.204 98.8406 210.63 98.5253C210.055 98.21 209.603 97.776 209.277 97.2233C208.947 96.6706 208.784 96.0437 208.784 95.3389C208.784 94.6342 208.947 93.985 209.277 93.4435C209.607 92.9019 210.055 92.4716 210.626 92.1563C211.197 91.841 211.846 91.6815 212.576 91.6815C213.306 91.6815 213.97 91.841 214.545 92.1563C215.119 92.4716 215.568 92.9019 215.894 93.4435C216.22 93.985 216.38 94.6193 216.38 95.3389C216.38 96.0586 216.217 96.6817 215.894 97.227C215.568 97.776 215.119 98.2063 214.541 98.5216C213.963 98.8369 213.31 98.9964 212.58 98.9964L212.572 99.0001ZM212.572 97.5831C212.98 97.5831 213.347 97.4904 213.666 97.3086C213.985 97.1269 214.237 96.8635 214.419 96.5222C214.6 96.181 214.693 95.7841 214.693 95.3389C214.693 94.8938 214.6 94.4895 214.419 94.1557C214.237 93.8218 213.985 93.5622 213.666 93.3804C213.347 93.1986 212.984 93.1059 212.584 93.1059C212.183 93.1059 211.824 93.1986 211.501 93.3804C211.178 93.5622 210.926 93.8218 210.741 94.1557C210.556 94.4895 210.459 94.8827 210.459 95.3389C210.459 95.7952 210.552 96.1773 210.741 96.5222C210.93 96.8672 211.182 97.1269 211.501 97.3086C211.82 97.4904 212.176 97.5831 212.569 97.5831H212.572ZM211.438 90.8024L213.24 88.9736H215.216L212.88 90.8024H211.438Z" fill="black"/>
<path d="M217.993 98.9075V91.778H219.579V93.7143L219.298 93.1134C219.539 92.6609 219.894 92.3085 220.373 92.0599C220.847 91.8114 221.4 91.6853 222.022 91.6853C222.601 91.6853 223.109 91.7966 223.55 92.0192C223.991 92.2417 224.343 92.583 224.603 93.0466C224.866 93.5103 224.996 94.1001 224.996 94.8235V98.9112H223.327V95.0386C223.327 94.408 223.179 93.9332 222.886 93.6216C222.593 93.31 222.175 93.1542 221.633 93.1542C221.24 93.1542 220.895 93.2358 220.591 93.3953C220.287 93.5548 220.054 93.7922 219.891 94.1112C219.728 94.4265 219.642 94.8272 219.642 95.3057V98.9112H217.989L217.993 98.9075Z" fill="black"/>
<path d="M230.965 98.9075V89.5598H237.786V91.0287H232.7V97.4386H237.972V98.9075H230.965ZM232.566 94.8717V93.4435H237.212V94.8717H232.566Z" fill="black"/>
<path d="M239.758 98.9076V88.9998H241.412V98.9076H239.758Z" fill="black"/>
<path d="M246.954 99.0002C246.161 99.0002 245.472 98.8407 244.878 98.5254C244.285 98.2101 243.829 97.7761 243.503 97.2308C243.177 96.6819 243.017 96.055 243.017 95.3428C243.017 94.6306 243.177 94 243.492 93.4547C243.807 92.9057 244.244 92.4754 244.801 92.1601C245.357 91.8448 245.991 91.6853 246.702 91.6853C247.414 91.6853 248.015 91.8374 248.556 92.1453C249.097 92.4531 249.527 92.8834 249.839 93.4324C250.15 93.9814 250.306 94.638 250.306 95.3947C250.306 95.4578 250.306 95.5356 250.299 95.6284C250.295 95.7211 250.287 95.8027 250.28 95.8769H244.341V94.7678H249.398L248.73 95.1165C248.738 94.7159 248.656 94.3561 248.482 94.0408C248.308 93.7255 248.07 93.4806 247.766 93.3063C247.462 93.132 247.106 93.0466 246.699 93.0466C246.291 93.0466 245.939 93.132 245.624 93.3063C245.308 93.4806 245.064 93.7255 244.897 94.0482C244.726 94.3672 244.645 94.7381 244.645 95.1573V95.4244C244.645 95.851 244.741 96.2293 244.93 96.5594C245.123 96.8896 245.394 97.1455 245.75 97.3273C246.105 97.5091 246.521 97.6018 246.992 97.6018C247.392 97.6018 247.752 97.535 248.074 97.4015C248.393 97.2679 248.678 97.0713 248.927 96.8154L249.835 97.8577C249.505 98.2324 249.097 98.518 248.615 98.7109C248.13 98.9075 247.577 99.0039 246.954 99.0039V99.0002Z" fill="black"/>
<path d="M255.174 99.0002C254.425 99.0002 253.761 98.8407 253.179 98.5254C252.597 98.2101 252.141 97.7761 251.811 97.2308C251.481 96.6819 251.318 96.055 251.318 95.3428C251.318 94.6306 251.481 93.9888 251.811 93.4473C252.141 92.9057 252.597 92.4754 253.179 92.1601C253.761 91.8448 254.429 91.6853 255.174 91.6853C255.86 91.6853 256.468 91.8263 257.001 92.1119C257.535 92.3975 257.936 92.8092 258.203 93.3545L256.935 94.1038C256.72 93.7737 256.46 93.5289 256.152 93.362C255.845 93.1987 255.515 93.1134 255.159 93.1134C254.751 93.1134 254.38 93.2062 254.05 93.3879C253.72 93.5697 253.465 93.8293 253.276 94.1632C253.09 94.497 252.994 94.8902 252.994 95.3465C252.994 95.8027 253.086 96.1959 253.276 96.5335C253.461 96.871 253.72 97.1307 254.05 97.3162C254.38 97.4979 254.747 97.5907 255.159 97.5907C255.515 97.5907 255.845 97.5091 256.152 97.3421C256.46 97.1789 256.72 96.9267 256.935 96.5891L258.203 97.3384C257.936 97.8726 257.535 98.2843 257.001 98.5736C256.468 98.863 255.86 99.0076 255.174 99.0076V99.0002Z" fill="black"/>
<path d="M258.803 93.1096V91.7742H263.556V93.1096H258.803ZM262.436 99.0001C261.654 99.0001 261.05 98.7961 260.62 98.3918C260.19 97.9875 259.978 97.394 259.978 96.6076V90.1978H261.632V96.5556C261.632 96.8932 261.721 97.1566 261.899 97.342C262.077 97.5275 262.325 97.624 262.648 97.624C263.011 97.624 263.315 97.5275 263.556 97.3309L264.038 98.5179C263.834 98.6774 263.589 98.7998 263.304 98.8777C263.018 98.9593 262.729 98.9964 262.436 98.9964V99.0001Z" fill="black"/>
<path d="M265.425 98.9075V91.7781H267.011V93.7404L266.826 93.1654C267.03 92.6832 267.363 92.3159 267.827 92.0637C268.29 91.8115 268.854 91.6816 269.521 91.6816V93.2693C269.458 93.2618 269.395 93.2544 269.336 93.2507C269.273 93.247 269.217 93.2433 269.162 93.2433C268.52 93.2433 268.012 93.4251 267.642 93.7923C267.267 94.1558 267.082 94.7122 267.082 95.4615V98.9075H265.428H265.425Z" fill="black"/>
<path d="M274.085 99.0001C273.366 99.0001 272.717 98.8406 272.142 98.5253C271.568 98.21 271.115 97.776 270.789 97.2233C270.459 96.6706 270.296 96.0437 270.296 95.3389C270.296 94.6342 270.459 93.985 270.789 93.4435C271.119 92.9019 271.568 92.4716 272.139 92.1563C272.709 91.841 273.358 91.6815 274.089 91.6815C274.819 91.6815 275.483 91.841 276.057 92.1563C276.632 92.4716 277.08 92.9019 277.407 93.4435C277.733 93.985 277.892 94.6193 277.892 95.3389C277.892 96.0586 277.729 96.6817 277.407 97.227C277.08 97.776 276.632 98.2063 276.054 98.5216C275.475 98.8369 274.823 98.9964 274.092 98.9964L274.085 99.0001ZM274.085 97.5831C274.493 97.5831 274.86 97.4904 275.179 97.3086C275.497 97.1269 275.75 96.8635 275.931 96.5222C276.113 96.181 276.206 95.7841 276.206 95.3389C276.206 94.8938 276.113 94.4895 275.931 94.1557C275.75 93.8218 275.497 93.5622 275.179 93.3804C274.86 93.1986 274.496 93.1059 274.096 93.1059C273.696 93.1059 273.336 93.1986 273.013 93.3804C272.691 93.5622 272.439 93.8218 272.253 94.1557C272.068 94.4895 271.972 94.8827 271.972 95.3389C271.972 95.7952 272.064 96.1773 272.253 96.5222C272.443 96.8672 272.695 97.1269 273.013 97.3086C273.332 97.4904 273.688 97.5831 274.081 97.5831H274.085ZM272.95 90.8024L274.752 88.9736H276.728L274.393 90.8024H272.95Z" fill="black"/>
<path d="M279.505 98.9075V91.778H281.092V93.7143L280.81 93.1134C281.051 92.6609 281.407 92.3085 281.885 92.0599C282.36 91.8114 282.912 91.6853 283.535 91.6853C284.113 91.6853 284.621 91.7966 285.062 92.0192C285.504 92.2417 285.856 92.583 286.115 93.0466C286.378 93.5103 286.508 94.1001 286.508 94.8235V98.9112H284.84V95.0386C284.84 94.408 284.692 93.9332 284.399 93.6216C284.106 93.31 283.687 93.1542 283.146 93.1542C282.753 93.1542 282.408 93.2358 282.104 93.3953C281.8 93.5548 281.566 93.7922 281.403 94.1112C281.24 94.4265 281.155 94.8272 281.155 95.3057V98.9112H279.501L279.505 98.9075Z" fill="black"/>
<path d="M289.474 90.6021C289.163 90.6021 288.907 90.5057 288.707 90.3091C288.507 90.1125 288.406 89.8714 288.406 89.5895C288.406 89.3224 288.507 89.0924 288.707 88.8958C288.907 88.6992 289.163 88.6028 289.474 88.6028C289.786 88.6028 290.041 88.6955 290.242 88.8773C290.442 89.059 290.542 89.2927 290.542 89.5784C290.542 89.864 290.445 90.1051 290.249 90.3054C290.053 90.5057 289.797 90.6059 289.474 90.6059V90.6021ZM288.647 98.9075V91.778H290.301V98.9075H288.647Z" fill="black"/>
<path d="M295.762 99.0002C295.013 99.0002 294.349 98.8407 293.767 98.5254C293.185 98.2101 292.729 97.7761 292.399 97.2308C292.069 96.6819 291.906 96.055 291.906 95.3428C291.906 94.6306 292.069 93.9888 292.399 93.4473C292.729 92.9057 293.185 92.4754 293.767 92.1601C294.349 91.8448 295.017 91.6853 295.762 91.6853C296.448 91.6853 297.056 91.8263 297.59 92.1119C298.123 92.3975 298.524 92.8092 298.791 93.3545L297.523 94.1038C297.308 93.7737 297.048 93.5289 296.741 93.362C296.433 93.1987 296.103 93.1134 295.747 93.1134C295.339 93.1134 294.968 93.2062 294.639 93.3879C294.309 93.5697 294.053 93.8293 293.864 94.1632C293.678 94.497 293.582 94.8902 293.582 95.3465C293.582 95.8027 293.675 96.1959 293.864 96.5335C294.049 96.871 294.309 97.1307 294.639 97.3162C294.968 97.4979 295.335 97.5907 295.747 97.5907C296.103 97.5907 296.433 97.5091 296.741 97.3421C297.048 97.1789 297.308 96.9267 297.523 96.5891L298.791 97.3384C298.524 97.8726 298.123 98.2843 297.59 98.5736C297.056 98.863 296.448 99.0076 295.762 99.0076V99.0002Z" fill="black"/>
<path d="M302.394 99.0003C301.86 99.0003 301.393 98.9075 300.993 98.7258C300.593 98.544 300.285 98.2881 300.066 97.9654C299.847 97.6426 299.74 97.2717 299.74 96.8637C299.74 96.4556 299.836 96.1032 300.025 95.7805C300.218 95.4615 300.529 95.2056 300.967 95.0201C301.401 94.8346 301.983 94.7382 302.702 94.7382H304.771V95.8473H302.821C302.261 95.8473 301.879 95.94 301.679 96.1218C301.479 96.3035 301.378 96.5335 301.378 96.808C301.378 97.1011 301.497 97.3385 301.738 97.5165C301.979 97.6946 302.313 97.7836 302.739 97.7836C303.165 97.7836 303.514 97.6909 303.84 97.5017C304.166 97.3162 304.404 97.038 304.556 96.6745L304.823 97.676C304.663 98.0952 304.378 98.4179 303.97 98.6516C303.562 98.8816 303.036 99.0003 302.394 99.0003ZM304.637 98.9075V97.4535L304.556 97.1604V94.638C304.556 94.1484 304.407 93.7663 304.107 93.4955C303.81 93.2247 303.358 93.0875 302.754 93.0875C302.361 93.0875 301.975 93.1506 301.593 93.273C301.212 93.3991 300.882 93.5697 300.607 93.7923L299.955 92.5756C300.348 92.2826 300.804 92.06 301.33 91.9079C301.857 91.7558 302.402 91.6816 302.973 91.6816C304.014 91.6816 304.815 91.9302 305.375 92.4309C305.935 92.928 306.217 93.6958 306.217 94.727V98.9075H304.641H304.637Z" fill="black"/>
<path d="M73.7134 28.2694C77.3725 28.6811 80.3532 31.7859 80.6313 35.4433C80.7166 36.5636 80.9427 38.9821 79.3671 39.0674C77.6914 39.1601 78.2067 36.8232 78.1251 35.8439C77.9101 33.303 76.1528 31.2146 73.5688 30.9179C58.0016 31.0848 42.3936 30.6879 26.845 30.7955C25.8736 30.8029 26.6299 31.5114 26.8116 31.8638C27.4715 33.1509 27.8756 34.2304 27.9757 35.703L27.9646 77.7304C27.7829 80.939 30.4226 83.7025 33.6813 83.3056C35.4942 83.0868 37.3961 81.4843 37.8484 79.7038C38.1153 78.6652 37.7817 77.4077 39.0978 77.0034L77.658 76.9922C77.7915 76.9737 77.9175 76.9181 78.0028 76.8105C78.4032 76.2986 77.8582 73.2643 78.1956 72.3926C78.6553 71.1908 80.6239 71.8399 80.6239 72.7153V76.7994L80.8204 76.996H85.9551C86.5371 76.996 86.9672 78.0976 86.9486 78.6429C86.8485 81.8256 84.3238 84.8376 81.2875 85.6277C64.597 85.9653 47.7915 85.9096 31.0936 85.6537C22.411 83.6617 26.1628 70.434 25.3398 64.1466C25.2693 63.6088 25.1025 63.6013 24.6168 63.5531C19.1374 63.0153 12.7718 64.0131 7.22934 63.5642C3.41818 63.2564 0.381854 60.2184 0.185364 56.3866L0.248389 14.4222L0.463416 13.9771L15.456 0.274575L64.5043 0.207806C64.9714 0.0371735 65.75 0.871787 65.75 1.20192V28.0691L65.9465 28.2657H73.7134V28.2694ZM17.6359 2.71906L17.2985 3.30515C16.9908 6.95148 17.7323 11.3471 17.3096 14.9044C17.1984 15.8318 16.6572 16.084 15.797 16.1582C11.8116 16.5069 7.31832 15.8911 3.2773 16.1471C2.93993 16.1248 2.79534 16.34 2.7212 16.6441L2.69524 56.2567C3.23652 62.5367 12.212 62.3327 12.7014 56.6574C13.2649 50.1511 12.2862 42.8287 12.6903 36.2334C12.8719 33.3104 14.1102 30.5432 16.8203 29.1707C17.1725 28.9927 19.2115 28.2731 19.4784 28.2731H62.9213L63.1177 28.0765V2.91566L62.9213 2.71906H17.6359ZM5.39049 13.5171H14.4735C14.7071 13.5171 14.7923 12.9941 14.8109 12.8012C15 10.9057 14.9406 7.3521 14.8109 5.41208C14.7961 5.19323 14.7886 4.63682 14.4735 4.68875L5.194 13.1907L5.39049 13.5171ZM19.6453 30.9401C17.1317 31.2406 15.4782 33.4069 15.3225 35.8365C14.8924 42.5505 15.9194 50.0287 15.3262 56.6499C15.2409 57.607 14.8665 58.7235 14.4327 59.5729C14.2325 59.9587 13.6319 60.4558 13.758 60.849L13.9656 61.0419L25.147 60.9417L25.3287 60.5967L25.299 34.9537C24.6428 32.2681 22.448 30.6026 19.6453 30.9401ZM83.916 79.5035H40.9366C40.425 79.5035 40.1173 81.0763 39.9134 81.5103C39.7614 81.8367 38.8865 82.9829 39.0273 83.1906L39.7466 83.3316L79.7712 83.3242C81.3246 83.1795 82.9224 82.1446 83.6824 80.7832C83.9346 80.3344 84.1496 80.0228 83.9197 79.5072L83.916 79.5035Z" fill="url(#paint0_linear_266_648)" stroke="url(#paint1_linear_266_648)" stroke-miterlimit="10"/>
<path d="M69.3536 65.226C61.9907 57.848 65.1049 44.9541 75.0666 41.8716C86.5112 38.3329 96.8139 49.6206 92.3021 60.6968C88.5502 69.9109 76.3716 72.259 69.3536 65.226ZM71.0626 63.2563C79.7898 71.5134 93.5737 63.3527 90.2 51.9463C87.7532 43.6707 77.7433 41.1149 71.4297 46.9238C66.9289 51.0672 66.5285 58.9608 71.0663 63.2526L71.0626 63.2563Z" fill="url(#paint2_linear_266_648)" stroke="url(#paint3_linear_266_648)" stroke-miterlimit="10"/>
<path d="M34.6415 57.5364L59.6588 57.6106C60.7969 58.3116 60.5078 59.9364 59.099 60.0142H35.0086C33.533 59.8139 33.3885 58.2783 34.6415 57.5401V57.5364Z" fill="url(#paint4_linear_266_648)" stroke="url(#paint5_linear_266_648)" stroke-miterlimit="10"/>
<path d="M34.6453 49.7654L59.6922 49.8062C60.8266 50.6223 60.4485 52.0392 59.1064 52.2433H35.0049C33.6369 51.9205 33.281 50.3811 34.6453 49.7654Z" fill="url(#paint6_linear_266_648)" stroke="url(#paint7_linear_266_648)" stroke-miterlimit="10"/>
<path d="M53.4749 43.7783C53.4045 43.8636 52.6964 44.19 52.5258 44.2123H35.0049C33.4923 43.8636 33.3329 42.0756 34.8751 41.701H52.6519C53.6418 41.6899 53.9828 43.1402 53.4712 43.7783H53.4749Z" fill="url(#paint8_linear_266_648)" stroke="url(#paint9_linear_266_648)" stroke-miterlimit="10"/>
<path d="M17.6359 2.71904H62.9213L63.1178 2.91564V28.0727L62.9213 28.2693H19.4785C19.2152 28.2693 17.1762 28.989 16.8203 29.167C14.1102 30.5395 12.8719 33.3104 12.6903 36.2297C12.2825 42.8287 13.2649 50.1473 12.7014 56.6536C12.2083 62.329 3.23282 62.5293 2.69525 56.253L2.7212 16.6404C2.79164 16.3362 2.93994 16.1211 3.27731 16.1433C7.31462 15.8911 11.8116 16.5069 15.7971 16.1545C16.6572 16.0803 17.1984 15.828 17.3097 14.9007C17.736 11.3434 16.9908 6.94775 17.2985 3.30142L17.6359 2.71533V2.71904Z" stroke="url(#paint10_linear_266_648)" stroke-miterlimit="10"/>
<path d="M83.916 79.5035C84.1459 80.0191 83.9272 80.3307 83.6788 80.7795C82.9188 82.1408 81.3246 83.1758 79.7675 83.3204L39.7429 83.3278L39.0237 83.1869C38.8828 82.9792 39.7577 81.833 39.9097 81.5065C40.1099 81.0725 40.4176 79.4998 40.9329 79.4998H83.9123L83.916 79.5035Z" fill="url(#paint11_linear_266_648)" stroke="url(#paint12_linear_266_648)" stroke-miterlimit="10"/>
<path d="M75.9934 59.5322C75.3075 59.5322 74.6513 59.4394 74.0174 59.2577C73.3834 59.0759 72.8792 58.8348 72.4937 58.5417L73.1647 57.0469C73.5243 57.3102 73.9544 57.5217 74.4623 57.6886C74.9665 57.8555 75.4781 57.9408 75.9897 57.9408C76.3827 57.9408 76.6978 57.9 76.9388 57.8184C77.1798 57.7368 77.3577 57.6292 77.4726 57.4957C77.5876 57.3622 77.6432 57.2026 77.6432 57.0246C77.6432 56.7946 77.5542 56.6129 77.3725 56.4793C77.1946 56.3458 76.9536 56.2345 76.657 56.1492C76.3604 56.0639 76.0342 55.9823 75.6857 55.9044C75.3372 55.8265 74.9813 55.7337 74.6291 55.6224C74.2769 55.5112 73.9469 55.3665 73.6504 55.181C73.3538 54.9956 73.1165 54.7582 72.9422 54.4577C72.768 54.1609 72.679 53.7863 72.679 53.3375C72.679 52.8478 72.8088 52.4027 73.072 51.9984C73.3315 51.594 73.7319 51.2713 74.2658 51.0302C74.7996 50.7891 75.4707 50.6704 76.2789 50.6704C76.8164 50.6704 77.3503 50.7372 77.8767 50.867C78.4032 50.9968 78.8629 51.186 79.2522 51.4308L78.6293 52.9257C78.2475 52.7069 77.8508 52.5399 77.443 52.4287C77.0352 52.3174 76.6422 52.2617 76.2677 52.2617C75.8933 52.2617 75.5633 52.3063 75.3261 52.3916C75.0888 52.4769 74.9146 52.5919 74.807 52.7402C74.6958 52.8886 74.6402 53.0518 74.6402 53.2299C74.6402 53.4599 74.7292 53.6416 74.9109 53.7789C75.0888 53.9198 75.3261 54.0274 75.619 54.1053C75.9118 54.1832 76.2381 54.2611 76.5977 54.339C76.9573 54.4169 77.3095 54.5133 77.6617 54.6246C78.0139 54.7396 78.3327 54.8843 78.6293 55.0586C78.9259 55.233 79.1632 55.4704 79.3449 55.7671C79.5302 56.0639 79.6192 56.4348 79.6192 56.8762C79.6192 57.3584 79.4857 57.7999 79.2225 58.1968C78.9556 58.5974 78.5552 58.9201 78.0176 59.1649C77.4801 59.4097 76.8053 59.5322 76.0008 59.5322H75.9934Z" fill="url(#paint13_linear_266_648)" stroke="url(#paint14_linear_266_648)" stroke-miterlimit="10"/>
<path d="M79.5525 60.6116L83.5898 49.0828H85.2766L81.2393 60.6116H79.5525Z" fill="url(#paint15_linear_266_648)" stroke="url(#paint16_linear_266_648)" stroke-miterlimit="10"/>
<path d="M85.2025 59.484C84.8762 59.484 84.5982 59.3727 84.3646 59.1465C84.131 58.9239 84.0161 58.6383 84.0161 58.297C84.0161 57.9558 84.131 57.6479 84.3646 57.429C84.5982 57.2102 84.8762 57.0989 85.2025 57.0989C85.5287 57.0989 85.8179 57.2102 86.0477 57.429C86.2776 57.6479 86.3888 57.9409 86.3888 58.297C86.3888 58.6531 86.2739 58.9239 86.0477 59.1465C85.8179 59.3727 85.5361 59.484 85.2025 59.484Z" fill="url(#paint17_linear_266_648)" stroke="url(#paint18_linear_266_648)" stroke-miterlimit="10"/>
</g>
<defs>
<linearGradient id="paint0_linear_266_648" x1="0.185364" y1="43.029" x2="86.9523" y2="43.029" gradientUnits="userSpaceOnUse">
<stop stop-color="#D70005"/>
<stop offset="0.31" stop-color="#D70005"/>
<stop offset="0.4" stop-color="#D90806"/>
<stop offset="0.55" stop-color="#E01F08"/>
<stop offset="0.74" stop-color="#EB460D"/>
<stop offset="0.95" stop-color="#FB7A13"/>
<stop offset="1" stop-color="#FF8715"/>
</linearGradient>
<linearGradient id="paint1_linear_266_648" x1="-4.06678e-06" y1="43.029" x2="87.1377" y2="43.029" gradientUnits="userSpaceOnUse">
<stop stop-color="#D70005"/>
<stop offset="0.16" stop-color="#DB070D"/>
<stop offset="0.38" stop-color="#E61920"/>
<stop offset="0.48" stop-color="#E71D1F"/>
<stop offset="0.61" stop-color="#EA2B1E"/>
<stop offset="0.74" stop-color="#EF411B"/>
<stop offset="0.87" stop-color="#F66018"/>
<stop offset="1" stop-color="#FF8715"/>
</linearGradient>
<linearGradient id="paint2_linear_266_648" x1="65.3014" y1="55.2663" x2="93.3883" y2="55.2663" gradientUnits="userSpaceOnUse">
<stop stop-color="#D70005"/>
<stop offset="0.31" stop-color="#D70005"/>
<stop offset="0.4" stop-color="#D90806"/>
<stop offset="0.55" stop-color="#E01F08"/>
<stop offset="0.74" stop-color="#EB460D"/>
<stop offset="0.95" stop-color="#FB7A13"/>
<stop offset="1" stop-color="#FF8715"/>
</linearGradient>
<linearGradient id="paint3_linear_266_648" x1="65.116" y1="55.2663" x2="93.5737" y2="55.2663" gradientUnits="userSpaceOnUse">
<stop stop-color="#D70005"/>
<stop offset="0.16" stop-color="#DB070D"/>
<stop offset="0.38" stop-color="#E61920"/>
<stop offset="0.48" stop-color="#E71D1F"/>
<stop offset="0.61" stop-color="#EA2B1E"/>
<stop offset="0.74" stop-color="#EF411B"/>
<stop offset="0.87" stop-color="#F66018"/>
<stop offset="1" stop-color="#FF8715"/>
</linearGradient>
<linearGradient id="paint4_linear_266_648" x1="33.7963" y1="58.7716" x2="60.3595" y2="58.7716" gradientUnits="userSpaceOnUse">
<stop stop-color="#D70005"/>
<stop offset="0.31" stop-color="#D70005"/>
<stop offset="0.4" stop-color="#D90806"/>
<stop offset="0.55" stop-color="#E01F08"/>
<stop offset="0.74" stop-color="#EB460D"/>
<stop offset="0.95" stop-color="#FB7A13"/>
<stop offset="1" stop-color="#FF8715"/>
</linearGradient>
<linearGradient id="paint5_linear_266_648" x1="33.6109" y1="58.7716" x2="60.5448" y2="58.7716" gradientUnits="userSpaceOnUse">
<stop stop-color="#D70005"/>
<stop offset="0.16" stop-color="#DB070D"/>
<stop offset="0.38" stop-color="#E61920"/>
<stop offset="0.48" stop-color="#E71D1F"/>
<stop offset="0.61" stop-color="#EA2B1E"/>
<stop offset="0.74" stop-color="#EF411B"/>
<stop offset="0.87" stop-color="#F66018"/>
<stop offset="1" stop-color="#FF8715"/>
</linearGradient>
<linearGradient id="paint6_linear_266_648" x1="33.7815" y1="51.0043" x2="60.3632" y2="51.0043" gradientUnits="userSpaceOnUse">
<stop stop-color="#D70005"/>
<stop offset="0.31" stop-color="#D70005"/>
<stop offset="0.4" stop-color="#D90806"/>
<stop offset="0.55" stop-color="#E01F08"/>
<stop offset="0.74" stop-color="#EB460D"/>
<stop offset="0.95" stop-color="#FB7A13"/>
<stop offset="1" stop-color="#FF8715"/>
</linearGradient>
<linearGradient id="paint7_linear_266_648" x1="33.5961" y1="51.0043" x2="60.5486" y2="51.0043" gradientUnits="userSpaceOnUse">
<stop stop-color="#D70005"/>
<stop offset="0.16" stop-color="#DB070D"/>
<stop offset="0.38" stop-color="#E61920"/>
<stop offset="0.48" stop-color="#E71D1F"/>
<stop offset="0.61" stop-color="#EA2B1E"/>
<stop offset="0.74" stop-color="#EF411B"/>
<stop offset="0.87" stop-color="#F66018"/>
<stop offset="1" stop-color="#FF8715"/>
</linearGradient>
<linearGradient id="paint8_linear_266_648" x1="33.7926" y1="42.9548" x2="53.7085" y2="42.9548" gradientUnits="userSpaceOnUse">
<stop stop-color="#D70005"/>
<stop offset="0.31" stop-color="#D70005"/>
<stop offset="0.4" stop-color="#D90806"/>
<stop offset="0.55" stop-color="#E01F08"/>
<stop offset="0.74" stop-color="#EB460D"/>
<stop offset="0.95" stop-color="#FB7A13"/>
<stop offset="1" stop-color="#FF8715"/>
</linearGradient>
<linearGradient id="paint9_linear_266_648" x1="33.6072" y1="42.9548" x2="53.8939" y2="42.9548" gradientUnits="userSpaceOnUse">
<stop stop-color="#D70005"/>
<stop offset="0.16" stop-color="#DB070D"/>
<stop offset="0.38" stop-color="#E61920"/>
<stop offset="0.48" stop-color="#E71D1F"/>
<stop offset="0.61" stop-color="#EA2B1E"/>
<stop offset="0.74" stop-color="#EF411B"/>
<stop offset="0.87" stop-color="#F66018"/>
<stop offset="1" stop-color="#FF8715"/>
</linearGradient>
<linearGradient id="paint10_linear_266_648" x1="2.50988" y1="31.8266" x2="63.3031" y2="31.8266" gradientUnits="userSpaceOnUse">
<stop stop-color="#D70005"/>
<stop offset="0.16" stop-color="#DB070D"/>
<stop offset="0.38" stop-color="#E61920"/>
<stop offset="0.48" stop-color="#E71D1F"/>
<stop offset="0.61" stop-color="#EA2B1E"/>
<stop offset="0.74" stop-color="#EF411B"/>
<stop offset="0.87" stop-color="#F66018"/>
<stop offset="1" stop-color="#FF8715"/>
</linearGradient>
<linearGradient id="paint11_linear_266_648" x1="39.0125" y1="81.4175" x2="84.0124" y2="81.4175" gradientUnits="userSpaceOnUse">
<stop stop-color="#D70005"/>
<stop offset="0.31" stop-color="#D70005"/>
<stop offset="0.4" stop-color="#D90806"/>
<stop offset="0.55" stop-color="#E01F08"/>
<stop offset="0.74" stop-color="#EB460D"/>
<stop offset="0.95" stop-color="#FB7A13"/>
<stop offset="1" stop-color="#FF8715"/>
</linearGradient>
<linearGradient id="paint12_linear_266_648" x1="38.8272" y1="81.4175" x2="84.1978" y2="81.4175" gradientUnits="userSpaceOnUse">
<stop stop-color="#D70005"/>
<stop offset="0.16" stop-color="#DB070D"/>
<stop offset="0.38" stop-color="#E61920"/>
<stop offset="0.48" stop-color="#E71D1F"/>
<stop offset="0.61" stop-color="#EA2B1E"/>
<stop offset="0.74" stop-color="#EF411B"/>
<stop offset="0.87" stop-color="#F66018"/>
<stop offset="1" stop-color="#FF8715"/>
</linearGradient>
<linearGradient id="paint13_linear_266_648" x1="72.4937" y1="55.1031" x2="79.6118" y2="55.1031" gradientUnits="userSpaceOnUse">
<stop stop-color="#D70005"/>
<stop offset="0.31" stop-color="#D70005"/>
<stop offset="0.4" stop-color="#D90806"/>
<stop offset="0.55" stop-color="#E01F08"/>
<stop offset="0.74" stop-color="#EB460D"/>
<stop offset="0.95" stop-color="#FB7A13"/>
<stop offset="1" stop-color="#FF8715"/>
</linearGradient>
<linearGradient id="paint14_linear_266_648" x1="72.2638" y1="55.1031" x2="79.7971" y2="55.1031" gradientUnits="userSpaceOnUse">
<stop stop-color="#D70005"/>
<stop offset="0.16" stop-color="#DB070D"/>
<stop offset="0.38" stop-color="#E61920"/>
<stop offset="0.48" stop-color="#E71D1F"/>
<stop offset="0.61" stop-color="#EA2B1E"/>
<stop offset="0.74" stop-color="#EF411B"/>
<stop offset="0.87" stop-color="#F66018"/>
<stop offset="1" stop-color="#FF8715"/>
</linearGradient>
<linearGradient id="paint15_linear_266_648" x1="79.5525" y1="54.8472" x2="85.2766" y2="54.8472" gradientUnits="userSpaceOnUse">
<stop stop-color="#D70005"/>
<stop offset="0.31" stop-color="#D70005"/>
<stop offset="0.4" stop-color="#D90806"/>
<stop offset="0.55" stop-color="#E01F08"/>
<stop offset="0.74" stop-color="#EB460D"/>
<stop offset="0.95" stop-color="#FB7A13"/>
<stop offset="1" stop-color="#FF8715"/>
</linearGradient>
<linearGradient id="paint16_linear_266_648" x1="79.2893" y1="54.8472" x2="85.5362" y2="54.8472" gradientUnits="userSpaceOnUse">
<stop stop-color="#D70005"/>
<stop offset="0.16" stop-color="#DB070D"/>
<stop offset="0.38" stop-color="#E61920"/>
<stop offset="0.48" stop-color="#E71D1F"/>
<stop offset="0.61" stop-color="#EA2B1E"/>
<stop offset="0.74" stop-color="#EF411B"/>
<stop offset="0.87" stop-color="#F66018"/>
<stop offset="1" stop-color="#FF8715"/>
</linearGradient>
<linearGradient id="paint17_linear_266_648" x1="84.0161" y1="58.2896" x2="86.3888" y2="58.2896" gradientUnits="userSpaceOnUse">
<stop stop-color="#D70005"/>
<stop offset="0.31" stop-color="#D70005"/>
<stop offset="0.4" stop-color="#D90806"/>
<stop offset="0.55" stop-color="#E01F08"/>
<stop offset="0.74" stop-color="#EB460D"/>
<stop offset="0.95" stop-color="#FB7A13"/>
<stop offset="1" stop-color="#FF8715"/>
</linearGradient>
<linearGradient id="paint18_linear_266_648" x1="83.8307" y1="58.2896" x2="86.5742" y2="58.2896" gradientUnits="userSpaceOnUse">
<stop stop-color="#D70005"/>
<stop offset="0.16" stop-color="#DB070D"/>
<stop offset="0.38" stop-color="#E61920"/>
<stop offset="0.48" stop-color="#E71D1F"/>
<stop offset="0.61" stop-color="#EA2B1E"/>
<stop offset="0.74" stop-color="#EF411B"/>
<stop offset="0.87" stop-color="#F66018"/>
<stop offset="1" stop-color="#FF8715"/>
</linearGradient>
<clipPath id="clip0_266_648">
<rect width="327" height="99" fill="white"/>
</clipPath>
</defs>
</svg>
